<?xml version="1.0" encoding="UTF-8"?>
<svg version="1.1" xmlns="http://www.w3.org/2000/svg" width="981" height="238">
<path d="M0 0 C2.78761672 -0.0040726 5.57521633 -0.01257872 8.36282349 -0.02079773 C15.11583349 -0.0378923 21.86875007 -0.03884519 28.62177607 -0.03358483 C34.11799017 -0.0295238 39.6141769 -0.03100948 45.11038971 -0.03633308 C45.89620073 -0.03708151 46.68201175 -0.03782993 47.49163522 -0.03860103 C49.08863805 -0.0401327 50.68564088 -0.04167105 52.28264371 -0.043216 C67.22058101 -0.05690764 82.15846577 -0.05152725 97.09640184 -0.04003078 C110.71982994 -0.03010533 124.34312208 -0.04303312 137.96652922 -0.06696498 C152.00190043 -0.09143208 166.03720852 -0.10094502 180.0726006 -0.09431225 C187.93360044 -0.09083643 195.79449589 -0.09294271 203.65547943 -0.11056328 C210.34831803 -0.12538107 217.04097874 -0.1257973 223.73381421 -0.10849237 C227.13903473 -0.10005703 230.54368208 -0.09986737 233.94892502 -0.11314392 C267.06327158 -0.2323042 295.7372126 6.32986609 321.24707031 28.40405273 C322.05402344 29.06663086 322.86097656 29.72920898 323.69238281 30.41186523 C340.27607829 44.50020842 351.66337748 63.84429634 358.24707031 84.40405273 C358.47297852 85.10884766 358.69888672 85.81364258 358.93164062 86.53979492 C367.78339056 115.86886498 363.07495228 149.75642736 349.09765625 176.61254883 C333.43650087 204.91104185 307.2914349 225.82987589 276.22535944 234.84749401 C261.10146524 239.10234999 246.09354532 238.83705688 230.49414062 238.80810547 C227.70652391 238.81217806 224.91892429 238.82068419 222.13131714 238.8289032 C215.37830713 238.84599777 208.62539055 238.84695065 201.87236455 238.84169029 C196.37615046 238.83762926 190.87996373 238.83911494 185.38375092 238.84443855 C184.5979399 238.84518697 183.81212888 238.8459354 183.00250541 238.8467065 C181.40550257 238.84823817 179.80849974 238.84977652 178.21149692 238.85132147 C163.27355962 238.8650131 148.33567486 238.85963271 133.39773878 238.84813625 C119.77431069 238.8382108 106.15101854 238.85113859 92.5276114 238.87507045 C78.4922402 238.89953755 64.4569321 238.90905049 50.42154002 238.90241772 C42.56054019 238.8989419 34.69964474 238.90104818 26.83866119 238.91866875 C20.14582259 238.93348654 13.45316188 238.93390276 6.76032642 238.91659784 C3.35510589 238.9081625 -0.04954146 238.90797284 -3.45478439 238.92124939 C-36.56913095 239.04040967 -65.24307197 232.47823938 -90.75292969 210.40405273 C-91.55988281 209.74147461 -92.36683594 209.07889648 -93.19824219 208.39624023 C-109.78193767 194.30789705 -121.16923685 174.96380913 -127.75292969 154.40405273 C-127.97883789 153.69925781 -128.20474609 152.99446289 -128.4375 152.26831055 C-137.28924994 122.93924048 -132.58081165 89.05167811 -118.60351562 62.19555664 C-102.94236025 33.89706362 -76.79729428 12.97822958 -45.73121881 3.96061146 C-30.60732461 -0.29424452 -15.59940469 -0.02895141 0 0 Z " fill="#3E66B4" transform="translate(131.7529296875,-0.404052734375)"/>
<path d="M0 0 C4.39040062 3.27876778 8.20330168 7.06333124 12 11 C12.66386719 11.63292969 13.32773437 12.26585938 14.01171875 12.91796875 C22.41137174 21.46862674 27.7409271 34.38724507 30 46 C30.18175781 46.92554688 30.36351562 47.85109375 30.55078125 48.8046875 C33.45397111 69.45520318 28.16193277 89.14086981 16 106 C3.88272888 121.84764121 -13.6364897 130.31748233 -32.9375 133.6875 C-54.66232107 135.78414598 -74.98255175 130.81758618 -92 117 C-93.03125 116.2575 -94.0625 115.515 -95.125 114.75 C-106.52308062 103.8474881 -114.16805445 89.47375046 -117 74 C-117.13019531 73.29488281 -117.26039063 72.58976562 -117.39453125 71.86328125 C-120.30288305 52.74571542 -115.73221735 33.34000113 -104.56860352 17.65234375 C-80.41385825 -14.96764252 -33.83593581 -21.87561418 0 0 Z M-82.0234375 30.3203125 C-90.68864707 42.06800769 -92.27728726 55.86043005 -91 70 C-88.58680798 82.23049593 -81.79395931 93.30169137 -72 101 C-59.42359609 108.70764403 -46.68556722 112.06377208 -32.0625 108.875 C-18.3768252 105.12815073 -8.05672586 97.23982972 -1 85 C4.53403614 72.37704747 6.5821084 57.82692799 2.375 44.4375 C-3.34374883 30.10063667 -12.25390432 20.54851222 -26.19140625 13.96484375 C-46.82583802 6.24936057 -68.23581918 14.29159721 -82.0234375 30.3203125 Z " fill="#4366B1" transform="translate(746,59)"/>
<path d="M0 0 C12.478125 -0.061875 24.95625 -0.12375 37.8125 -0.1875 C41.73229736 -0.21481201 45.65209473 -0.24212402 49.69067383 -0.27026367 C54.52868652 -0.28381348 54.52868652 -0.28381348 56.80351257 -0.28633118 C58.37055528 -0.29089614 59.93758837 -0.30135926 61.50456238 -0.31672668 C76.69583466 -0.45808097 91.68456952 1.33149722 103.33984375 12.16015625 C111.78673542 21.52129972 115.77267264 32.85556883 115.28125 45.46875 C113.96898979 57.27909187 109.61991834 66.12539403 101.078125 74.359375 C97.08187892 77.51430611 92.55081844 79.75339343 88 82 C93.25505104 92.66567925 98.6766827 103.24465935 104.125 113.8125 C104.46789062 114.47863312 104.81078125 115.14476624 105.1640625 115.83108521 C106.17302323 117.79048959 107.18359832 119.74904725 108.1953125 121.70703125 C108.51808167 122.33190933 108.84085083 122.95678741 109.17340088 123.6006012 C111.67882226 128.42956803 114.29009449 133.19454054 116.96435547 137.93237305 C118 140 118 140 118 142 C108.43 142 98.86 142 89 142 C87.54980469 139.08220703 87.54980469 139.08220703 86.0703125 136.10546875 C79.2026016 122.30657689 72.30832145 108.53278763 65.02050781 94.94921875 C63.64323992 92.31857117 62.32794379 89.65588758 61 87 C43.675 86.505 43.675 86.505 26 86 C26 104.48 26 122.96 26 142 C17.42 142 8.84 142 0 142 C0 95.14 0 48.28 0 0 Z M26 22 C26 35.86 26 49.72 26 64 C32.22634125 64.09224209 38.45027562 64.17175675 44.67675781 64.21972656 C46.79109772 64.23974016 48.90538299 64.26695972 51.01953125 64.30175781 C54.07305448 64.35072941 57.12584078 64.37307182 60.1796875 64.390625 C61.11239471 64.41127014 62.04510193 64.43191528 63.006073 64.45318604 C70.22911645 64.45561028 77.35886384 63.19602916 82.94747925 58.29058838 C87.05425921 53.88471814 88.75620992 49.63293282 89.3125 43.625 C88.65682533 36.01917386 86.27277443 31.65986674 80.62109375 26.54296875 C73.51282343 22.35851752 65.92868068 21.56187848 57.8359375 21.70703125 C56.6125769 21.71156311 56.6125769 21.71156311 55.36450195 21.71618652 C52.36786937 21.73167913 49.37141962 21.7735601 46.375 21.8125 C39.65125 21.874375 32.9275 21.93625 26 22 Z " fill="#4366B1" transform="translate(809,49)"/>
<path d="M0 0 C4.61774061 2.67885155 7.88470009 7.25010727 9.92578125 12.1171875 C10.18025684 14.74222946 10.18025684 14.74222946 10.18647766 17.78338623 C10.19356247 18.93847687 10.20064728 20.0935675 10.20794678 21.28366089 C10.20546936 22.54711334 10.20299194 23.8105658 10.20043945 25.11230469 C10.20478787 26.45950605 10.20997146 27.80670493 10.21592712 29.15390015 C10.2293182 32.81113646 10.22989541 36.46826942 10.22736382 40.12552547 C10.22629363 43.1819343 10.231179 46.23832226 10.23596925 49.29472661 C10.24706599 56.50965133 10.24750168 63.724524 10.24145508 70.93945312 C10.23542184 78.37165054 10.24770929 85.80365833 10.26902515 93.23582339 C10.28667046 99.62409886 10.29263768 106.01231414 10.2893874 112.40061307 C10.28757819 116.21265138 10.29017393 120.02455458 10.30410194 123.83657074 C10.31672255 127.42518004 10.31469655 131.01349533 10.30169106 134.60210037 C10.2982158 136.53760807 10.30947363 138.47312491 10.32125854 140.40859985 C10.27734216 147.71120384 10.05137495 154.19695134 5.3125 160.140625 C0.54413362 163.93339458 -3.32193624 165.76041014 -9.44921875 166.5546875 C-15.37491558 165.83951719 -19.34218216 162.894804 -23.44921875 158.6796875 C-26.3928925 154.03774043 -27.32308309 149.65811915 -27.34837341 144.21047974 C-27.35834854 143.05263977 -27.36832367 141.8947998 -27.37860107 140.70187378 C-27.37926575 139.44561188 -27.37993042 138.18934998 -27.38061523 136.89501953 C-27.3882437 135.54752141 -27.39667237 134.20002761 -27.40583801 132.85253906 C-27.4277199 129.20370473 -27.43657315 125.55495417 -27.44166446 121.90606165 C-27.44531495 119.62346952 -27.45155853 117.3408991 -27.45866585 115.05831528 C-27.48313662 107.08688143 -27.49620749 99.11551245 -27.49975586 91.14404297 C-27.50339122 83.72646673 -27.53329241 76.30930421 -27.57516044 68.89185441 C-27.60990264 62.51202903 -27.62530496 56.13234056 -27.62600189 49.75242126 C-27.62679326 45.94699868 -27.63546669 42.14199812 -27.66399956 38.33667374 C-27.69024892 34.756106 -27.69234817 31.17630822 -27.67634392 27.59568787 C-27.67367626 25.66492865 -27.69566531 23.73418395 -27.71853638 21.80355835 C-27.65823159 14.61736705 -26.90322271 9.6217476 -22.07421875 4.1171875 C-15.24039766 -2.2165979 -8.76265204 -3.57312025 0 0 Z " fill="#0E1D2D" transform="translate(256.07421875,36.8828125)"/>
<path d="M0 0 C8.58 0 17.16 0 26 0 C26 46.86 26 93.72 26 142 C17.42 142 8.84 142 0 142 C0 95.14 0 48.28 0 0 Z " fill="#4466B0" transform="translate(955,49)"/>
<path d="M0 0 C5.7610832 3.52243024 9.03243669 6.26764786 10.74609375 12.984375 C11.05072394 17.02326597 11.05015488 21.05259193 11.046875 25.1015625 C11.05116013 26.27268585 11.05544525 27.4438092 11.05986023 28.65042114 C11.06559312 31.12322342 11.06611148 33.59604255 11.06176758 36.06884766 C11.05861067 39.83916197 11.0820705 43.60868902 11.10742188 47.37890625 C11.10969536 49.78645735 11.11039814 52.19401055 11.109375 54.6015625 C11.11858475 55.72263397 11.12779449 56.84370544 11.13728333 57.99874878 C11.09876231 64.56127257 11.0486047 71.3557176 6.36494446 76.50192261 C1.46885454 80.77230263 -2.4809588 82.45878886 -8.875 82.30078125 C-14.09144835 81.60696792 -17.95082629 79.28745496 -21.62890625 75.609375 C-25.7643466 68.92904829 -25.56085079 62.46174062 -25.5546875 54.83203125 C-25.55897263 53.65853622 -25.56325775 52.4850412 -25.56767273 51.27598572 C-25.57340521 48.79898726 -25.57392428 46.32197198 -25.56958008 43.8449707 C-25.56642029 40.06367171 -25.5898935 36.28315548 -25.61523438 32.50195312 C-25.61750754 30.09114682 -25.61821078 27.68033841 -25.6171875 25.26953125 C-25.62639725 24.14329849 -25.63560699 23.01706573 -25.64509583 21.85670471 C-25.60567233 15.13995508 -25.30622726 9.62881292 -20.82421875 4.27734375 C-14.60221201 -0.4816506 -7.63022595 -3.43823007 0 0 Z " fill="#0E1E2D" transform="translate(326.25390625,81.015625)"/>
<path d="M0 0 C5.7610832 3.52243024 9.03243669 6.26764786 10.74609375 12.984375 C11.05072394 17.02326597 11.05015488 21.05259193 11.046875 25.1015625 C11.05116013 26.27268585 11.05544525 27.4438092 11.05986023 28.65042114 C11.06559312 31.12322342 11.06611148 33.59604255 11.06176758 36.06884766 C11.05861067 39.83916197 11.0820705 43.60868902 11.10742188 47.37890625 C11.10969536 49.78645735 11.11039814 52.19401055 11.109375 54.6015625 C11.11858475 55.72263397 11.12779449 56.84370544 11.13728333 57.99874878 C11.09876231 64.56127257 11.0486047 71.3557176 6.36494446 76.50192261 C1.46885454 80.77230263 -2.4809588 82.45878886 -8.875 82.30078125 C-14.09144835 81.60696792 -17.95082629 79.28745496 -21.62890625 75.609375 C-25.7643466 68.92904829 -25.56085079 62.46174062 -25.5546875 54.83203125 C-25.55897263 53.65853622 -25.56325775 52.4850412 -25.56767273 51.27598572 C-25.57340521 48.79898726 -25.57392428 46.32197198 -25.56958008 43.8449707 C-25.56642029 40.06367171 -25.5898935 36.28315548 -25.61523438 32.50195312 C-25.61750754 30.09114682 -25.61821078 27.68033841 -25.6171875 25.26953125 C-25.62639725 24.14329849 -25.63560699 23.01706573 -25.64509583 21.85670471 C-25.60567233 15.13995508 -25.30622726 9.62881292 -20.82421875 4.27734375 C-14.60221201 -0.4816506 -7.63022595 -3.43823007 0 0 Z " fill="#0E1E2D" transform="translate(183.25390625,81.015625)"/>
<path d="M0 0 C0.66 0.33 1.32 0.66 2 1 C-4.6 7.6 -11.2 14.2 -18 21 C-18 16.61305328 -15.24722277 14.63981539 -12.375 11.625 C-11.85292969 11.06039062 -11.33085938 10.49578125 -10.79296875 9.9140625 C-7.40617436 6.30148181 -3.86293875 3.09731125 0 0 Z " fill="#6F6094" transform="translate(44,25)"/>
<path d="M0 0 C0.66 0.33 1.32 0.66 2 1 C-3.94 6.94 -9.88 12.88 -16 19 C-16 13.49581073 -10.69222469 9.76817235 -7 6 C-4.72454022 3.90179524 -2.40856363 1.94734932 0 0 Z " fill="#66619B" transform="translate(658,60)"/>
</svg>
