<?xml version="1.0" encoding="UTF-8"?>
<svg version="1.1" xmlns="http://www.w3.org/2000/svg" width="981" height="238">
<path d="M0 0 C2.78761672 -0.0040726 5.57521633 -0.01257872 8.36282349 -0.02079773 C15.11583349 -0.0378923 21.86875007 -0.03884519 28.62177607 -0.03358483 C34.11799017 -0.0295238 39.6141769 -0.03100948 45.11038971 -0.03633308 C45.89620073 -0.03708151 46.68201175 -0.03782993 47.49163522 -0.03860103 C49.08863805 -0.0401327 50.68564088 -0.04167105 52.28264371 -0.043216 C67.22058101 -0.05690764 82.15846577 -0.05152725 97.09640184 -0.04003078 C110.71982994 -0.03010533 124.34312208 -0.04303312 137.96652922 -0.06696498 C152.00190043 -0.09143208 166.03720852 -0.10094502 180.0726006 -0.09431225 C187.93360044 -0.09083643 195.79449589 -0.09294271 203.65547943 -0.11056328 C210.34831803 -0.12538107 217.04097874 -0.1257973 223.73381421 -0.10849237 C227.13903473 -0.10005703 230.54368208 -0.09986737 233.94892502 -0.11314392 C267.06327158 -0.2323042 295.7372126 6.32986609 321.24707031 28.40405273 C322.05402344 29.06663086 322.86097656 29.72920898 323.69238281 30.41186523 C340.27607829 44.50020842 351.66337748 63.84429634 358.24707031 84.40405273 C358.47297852 85.10884766 358.69888672 85.81364258 358.93164062 86.53979492 C367.78339056 115.86886498 363.07495228 149.75642736 349.09765625 176.61254883 C333.43650087 204.91104185 307.2914349 225.82987589 276.22535944 234.84749401 C261.10146524 239.10234999 246.09354532 238.83705688 230.49414062 238.80810547 C227.70652391 238.81217806 224.91892429 238.82068419 222.13131714 238.8289032 C215.37830713 238.84599777 208.62539055 238.84695065 201.87236455 238.84169029 C196.37615046 238.83762926 190.87996373 238.83911494 185.38375092 238.84443855 C184.5979399 238.84518697 183.81212888 238.8459354 183.00250541 238.8467065 C181.40550257 238.84823817 179.80849974 238.84977652 178.21149692 238.85132147 C163.27355962 238.8650131 148.33567486 238.85963271 133.39773878 238.84813625 C119.77431069 238.8382108 106.15101854 238.85113859 92.5276114 238.87507045 C78.4922402 238.89953755 64.4569321 238.90905049 50.42154002 238.90241772 C42.56054019 238.8989419 34.69964474 238.90104818 26.83866119 238.91866875 C20.14582259 238.93348654 13.45316188 238.93390276 6.76032642 238.91659784 C3.35510589 238.9081625 -0.04954146 238.90797284 -3.45478439 238.92124939 C-36.56913095 239.04040967 -65.24307197 232.47823938 -90.75292969 210.40405273 C-91.55988281 209.74147461 -92.36683594 209.07889648 -93.19824219 208.39624023 C-109.78193767 194.30789705 -121.16923685 174.96380913 -127.75292969 154.40405273 C-127.97883789 153.69925781 -128.20474609 152.99446289 -128.4375 152.26831055 C-137.28924994 122.93924048 -132.58081165 89.05167811 -118.60351562 62.19555664 C-102.94236025 33.89706362 -76.79729428 12.97822958 -45.73121881 3.96061146 C-30.60732461 -0.29424452 -15.59940469 -0.02895141 0 0 Z " fill="#FEFEFE" transform="translate(131.7529296875,-0.404052734375)"/>
<path d="M0 0 C4.39040062 3.27876778 8.20330168 7.06333124 12 11 C12.66386719 11.63292969 13.32773437 12.26585938 14.01171875 12.91796875 C22.41137174 21.46862674 27.7409271 34.38724507 30 46 C30.18175781 46.92554688 30.36351562 47.85109375 30.55078125 48.8046875 C33.45397111 69.45520318 28.16193277 89.14086981 16 106 C3.88272888 121.84764121 -13.6364897 130.31748233 -32.9375 133.6875 C-54.66232107 135.78414598 -74.98255175 130.81758618 -92 117 C-93.03125 116.2575 -94.0625 115.515 -95.125 114.75 C-106.52308062 103.8474881 -114.16805445 89.47375046 -117 74 C-117.13019531 73.29488281 -117.26039063 72.58976562 -117.39453125 71.86328125 C-120.30288305 52.74571542 -115.73221735 33.34000113 -104.56860352 17.65234375 C-80.41385825 -14.96764252 -33.83593581 -21.87561418 0 0 Z M-82.0234375 30.3203125 C-90.68864707 42.06800769 -92.27728726 55.86043005 -91 70 C-88.58680798 82.23049593 -81.79395931 93.30169137 -72 101 C-59.42359609 108.70764403 -46.68556722 112.06377208 -32.0625 108.875 C-18.3768252 105.12815073 -8.05672586 97.23982972 -1 85 C4.53403614 72.37704747 6.5821084 57.82692799 2.375 44.4375 C-3.34374883 30.10063667 -12.25390432 20.54851222 -26.19140625 13.96484375 C-46.82583802 6.24936057 -68.23581918 14.29159721 -82.0234375 30.3203125 Z " fill="#FFFFFF" transform="translate(746,59)"/>
<path d="M0 0 C12.478125 -0.061875 24.95625 -0.12375 37.8125 -0.1875 C41.73229736 -0.21481201 45.65209473 -0.24212402 49.69067383 -0.27026367 C54.52868652 -0.28381348 54.52868652 -0.28381348 56.80351257 -0.28633118 C58.37055528 -0.29089614 59.93758837 -0.30135926 61.50456238 -0.31672668 C76.69583466 -0.45808097 91.68456952 1.33149722 103.33984375 12.16015625 C111.78673542 21.52129972 115.77267264 32.85556883 115.28125 45.46875 C113.96898979 57.27909187 109.61991834 66.12539403 101.078125 74.359375 C97.08187892 77.51430611 92.55081844 79.75339343 88 82 C93.25505104 92.66567925 98.6766827 103.24465935 104.125 113.8125 C104.46789062 114.47863312 104.81078125 115.14476624 105.1640625 115.83108521 C106.17302323 117.79048959 107.18359832 119.74904725 108.1953125 121.70703125 C108.51808167 122.33190933 108.84085083 122.95678741 109.17340088 123.6006012 C111.67882226 128.42956803 114.29009449 133.19454054 116.96435547 137.93237305 C118 140 118 140 118 142 C108.43 142 98.86 142 89 142 C87.54980469 139.08220703 87.54980469 139.08220703 86.0703125 136.10546875 C79.2026016 122.30657689 72.30832145 108.53278763 65.02050781 94.94921875 C63.64323992 92.31857117 62.32794379 89.65588758 61 87 C43.675 86.505 43.675 86.505 26 86 C26 104.48 26 122.96 26 142 C17.42 142 8.84 142 0 142 C0 95.14 0 48.28 0 0 Z M26 22 C26 35.86 26 49.72 26 64 C32.22634125 64.09224209 38.45027562 64.17175675 44.67675781 64.21972656 C46.79109772 64.23974016 48.90538299 64.26695972 51.01953125 64.30175781 C54.07305448 64.35072941 57.12584078 64.37307182 60.1796875 64.390625 C61.11239471 64.41127014 62.04510193 64.43191528 63.006073 64.45318604 C70.22911645 64.45561028 77.35886384 63.19602916 82.94747925 58.29058838 C87.05425921 53.88471814 88.75620992 49.63293282 89.3125 43.625 C88.65682533 36.01917386 86.27277443 31.65986674 80.62109375 26.54296875 C73.51282343 22.35851752 65.92868068 21.56187848 57.8359375 21.70703125 C56.6125769 21.71156311 56.6125769 21.71156311 55.36450195 21.71618652 C52.36786937 21.73167913 49.37141962 21.7735601 46.375 21.8125 C39.65125 21.874375 32.9275 21.93625 26 22 Z " fill="#FFFFFF" transform="translate(809,49)"/>
<path d="M0 0 C5.23714641 3.49143094 8.76667605 6.83472611 10.8125 12.875 C11.06697559 15.65991116 11.06697559 15.65991116 11.07319641 18.75083923 C11.08028122 19.92702316 11.08736603 21.10320709 11.09466553 22.31503296 C11.09218811 23.5967337 11.08971069 24.87843445 11.0871582 26.19897461 C11.09150781 27.56927264 11.09669179 28.93956823 11.10264587 30.30986023 C11.11602018 34.02475205 11.11661632 37.73954203 11.11408257 41.45445323 C11.11301184 44.55832185 11.11789884 47.66216996 11.122688 50.76603419 C11.13377767 58.08972529 11.13422357 65.41336511 11.12817383 72.73706055 C11.12213309 80.28690104 11.13444875 87.83655522 11.1557439 95.38636392 C11.17336869 101.87399035 11.17935989 108.36155751 11.17610615 114.84920698 C11.17429461 118.72152846 11.17691656 122.59371701 11.19082069 126.46601677 C11.20340886 130.10798227 11.20144581 133.74965761 11.18840981 137.39161873 C11.18492201 139.36089969 11.19621462 141.33018956 11.20797729 143.29943848 C11.19745583 145.06794411 11.19745583 145.06794411 11.1867218 146.87217712 C11.18688954 147.89256042 11.18705729 148.91294371 11.18723011 149.9642477 C10.35489937 156.42945709 6.67844906 160.86774783 1.8125 164.875 C-2.53730876 167.46137278 -7.26023734 167.41664944 -12.1875 166.875 C-17.55581712 165.08556096 -21.1574602 161.57521235 -24.1875 156.875 C-25.77387893 152.76927229 -26.43921998 149.34642039 -26.44819641 144.95483398 C-26.45528122 143.7941037 -26.46236603 142.63337341 -26.46966553 141.43746948 C-26.46718811 140.17806549 -26.46471069 138.9186615 -26.4621582 137.62109375 C-26.4665093 136.27035237 -26.47169377 134.91961345 -26.47764587 133.56887817 C-26.49100273 129.91189448 -26.49161838 126.25501434 -26.48908257 122.59801102 C-26.48801086 119.54131334 -26.49290121 116.48463644 -26.497688 113.42794323 C-26.50877117 106.21594365 -26.50922694 99.00399616 -26.50317383 91.79199219 C-26.49713076 84.35857737 -26.50945613 76.92535167 -26.5307439 69.49196911 C-26.54836883 63.10198608 -26.55435996 56.71206321 -26.55110615 50.32205677 C-26.54929497 46.5089942 -26.55191312 42.69606663 -26.56582069 38.88302612 C-26.57840946 35.29767935 -26.57644527 31.71262732 -26.56340981 28.127285 C-26.55992262 26.18902567 -26.57121356 24.25075729 -26.58297729 22.31253052 C-26.54020535 15.23461836 -26.26970548 10.18712807 -21.25 4.79296875 C-20.569375 4.22191406 -19.88875 3.65085937 -19.1875 3.0625 C-18.506875 2.47855469 -17.82625 1.89460938 -17.125 1.29296875 C-12.14378636 -2.35255655 -5.59297039 -1.97398955 0 0 Z " fill="#111F2E" transform="translate(255.1875,36.125)"/>
<path d="M0 0 C8.58 0 17.16 0 26 0 C26 46.86 26 93.72 26 142 C17.42 142 8.84 142 0 142 C0 95.14 0 48.28 0 0 Z " fill="#FFFFFF" transform="translate(955,49)"/>
<path d="M0 0 C4.41854291 3.11306432 8.02390999 6.75922996 9.75 11.9375 C9.85310176 13.76130563 9.89850674 15.5886093 9.91113281 17.4152832 C9.92074036 18.53687332 9.9303479 19.65846344 9.94024658 20.81404114 C9.94449646 22.02654037 9.94874634 23.23903961 9.953125 24.48828125 C9.95882507 25.73498093 9.96452515 26.9816806 9.97039795 28.26615906 C9.97985166 30.90656179 9.98674653 33.54685076 9.99023438 36.18725586 C9.99462437 38.89051781 10.00853566 41.59346153 10.03125 44.29663086 C10.06171079 48.19394633 10.07228257 52.09086 10.078125 55.98828125 C10.0904718 57.19470779 10.1028186 58.40113434 10.11553955 59.64411926 C10.09737183 66.49112367 9.87898361 71.54539731 5.03125 76.80078125 C4.4434375 77.27902344 3.855625 77.75726563 3.25 78.25 C2.36828125 78.98669922 2.36828125 78.98669922 1.46875 79.73828125 C-2.92722175 82.80547063 -8.12527956 82.36255506 -13.25 81.9375 C-18.6951873 80.15734261 -22.03226393 76.549239 -25.25 71.9375 C-26.27883751 68.85098746 -26.38876825 66.69530536 -26.41113281 63.4597168 C-26.42074036 62.33812668 -26.4303479 61.21653656 -26.44024658 60.06095886 C-26.44449646 58.84845963 -26.44874634 57.63596039 -26.453125 56.38671875 C-26.45882507 55.14001907 -26.46452515 53.8933194 -26.47039795 52.60884094 C-26.47985166 49.96843821 -26.48674653 47.32814924 -26.49023438 44.68774414 C-26.49462437 41.98448219 -26.50853566 39.28153847 -26.53125 36.57836914 C-26.56171079 32.68105367 -26.57228257 28.78414 -26.578125 24.88671875 C-26.5904718 23.68029221 -26.6028186 22.47386566 -26.61553955 21.23088074 C-26.59737183 14.38387633 -26.37898361 9.32960269 -21.53125 4.07421875 C-20.9434375 3.59597656 -20.355625 3.11773437 -19.75 2.625 C-19.1621875 2.13386719 -18.574375 1.64273438 -17.96875 1.13671875 C-12.85673119 -2.4300762 -5.66699521 -1.85267151 0 0 Z " fill="#12202F" transform="translate(327.25,81.0625)"/>
<path d="M0 0 C4.41854291 3.11306432 8.02390999 6.75922996 9.75 11.9375 C9.85310176 13.76130563 9.89850674 15.5886093 9.91113281 17.4152832 C9.92074036 18.53687332 9.9303479 19.65846344 9.94024658 20.81404114 C9.94449646 22.02654037 9.94874634 23.23903961 9.953125 24.48828125 C9.95882507 25.73498093 9.96452515 26.9816806 9.97039795 28.26615906 C9.97985166 30.90656179 9.98674653 33.54685076 9.99023438 36.18725586 C9.99462437 38.89051781 10.00853566 41.59346153 10.03125 44.29663086 C10.06171079 48.19394633 10.07228257 52.09086 10.078125 55.98828125 C10.0904718 57.19470779 10.1028186 58.40113434 10.11553955 59.64411926 C10.09737183 66.49112367 9.87898361 71.54539731 5.03125 76.80078125 C4.4434375 77.27902344 3.855625 77.75726563 3.25 78.25 C2.36828125 78.98669922 2.36828125 78.98669922 1.46875 79.73828125 C-2.92722175 82.80547063 -8.12527956 82.36255506 -13.25 81.9375 C-18.6951873 80.15734261 -22.03226393 76.549239 -25.25 71.9375 C-26.27883751 68.85098746 -26.38876825 66.69530536 -26.41113281 63.4597168 C-26.42074036 62.33812668 -26.4303479 61.21653656 -26.44024658 60.06095886 C-26.44449646 58.84845963 -26.44874634 57.63596039 -26.453125 56.38671875 C-26.45882507 55.14001907 -26.46452515 53.8933194 -26.47039795 52.60884094 C-26.47985166 49.96843821 -26.48674653 47.32814924 -26.49023438 44.68774414 C-26.49462437 41.98448219 -26.50853566 39.28153847 -26.53125 36.57836914 C-26.56171079 32.68105367 -26.57228257 28.78414 -26.578125 24.88671875 C-26.5904718 23.68029221 -26.6028186 22.47386566 -26.61553955 21.23088074 C-26.59737183 14.38387633 -26.37898361 9.32960269 -21.53125 4.07421875 C-20.9434375 3.59597656 -20.355625 3.11773437 -19.75 2.625 C-19.1621875 2.13386719 -18.574375 1.64273438 -17.96875 1.13671875 C-12.85673119 -2.4300762 -5.66699521 -1.85267151 0 0 Z " fill="#12202F" transform="translate(184.25,81.0625)"/>
</svg>
