<?xml version="1.0" encoding="UTF-8"?>
<svg version="1.1" xmlns="http://www.w3.org/2000/svg" width="981" height="238">
<path d="M0 0 C2.78761672 -0.0040726 5.57521633 -0.01257872 8.36282349 -0.02079773 C15.11583349 -0.0378923 21.86875007 -0.03884519 28.62177607 -0.03358483 C34.11799017 -0.0295238 39.6141769 -0.03100948 45.11038971 -0.03633308 C45.89620073 -0.03708151 46.68201175 -0.03782993 47.49163522 -0.03860103 C49.08863805 -0.0401327 50.68564088 -0.04167105 52.28264371 -0.043216 C67.22058101 -0.05690764 82.15846577 -0.05152725 97.09640184 -0.04003078 C110.71982994 -0.03010533 124.34312208 -0.04303312 137.96652922 -0.06696498 C152.00190043 -0.09143208 166.03720852 -0.10094502 180.0726006 -0.09431225 C187.93360044 -0.09083643 195.79449589 -0.09294271 203.65547943 -0.11056328 C210.34831803 -0.12538107 217.04097874 -0.1257973 223.73381421 -0.10849237 C227.13903473 -0.10005703 230.54368208 -0.09986737 233.94892502 -0.11314392 C267.06327158 -0.2323042 295.7372126 6.32986609 321.24707031 28.40405273 C322.05402344 29.06663086 322.86097656 29.72920898 323.69238281 30.41186523 C340.27607829 44.50020842 351.66337748 63.84429634 358.24707031 84.40405273 C358.47297852 85.10884766 358.69888672 85.81364258 358.93164062 86.53979492 C367.78339056 115.86886498 363.07495228 149.75642736 349.09765625 176.61254883 C333.43650087 204.91104185 307.2914349 225.82987589 276.22535944 234.84749401 C261.10146524 239.10234999 246.09354532 238.83705688 230.49414062 238.80810547 C227.70652391 238.81217806 224.91892429 238.82068419 222.13131714 238.8289032 C215.37830713 238.84599777 208.62539055 238.84695065 201.87236455 238.84169029 C196.37615046 238.83762926 190.87996373 238.83911494 185.38375092 238.84443855 C184.5979399 238.84518697 183.81212888 238.8459354 183.00250541 238.8467065 C181.40550257 238.84823817 179.80849974 238.84977652 178.21149692 238.85132147 C163.27355962 238.8650131 148.33567486 238.85963271 133.39773878 238.84813625 C119.77431069 238.8382108 106.15101854 238.85113859 92.5276114 238.87507045 C78.4922402 238.89953755 64.4569321 238.90905049 50.42154002 238.90241772 C42.56054019 238.8989419 34.69964474 238.90104818 26.83866119 238.91866875 C20.14582259 238.93348654 13.45316188 238.93390276 6.76032642 238.91659784 C3.35510589 238.9081625 -0.04954146 238.90797284 -3.45478439 238.92124939 C-36.56913095 239.04040967 -65.24307197 232.47823938 -90.75292969 210.40405273 C-91.55988281 209.74147461 -92.36683594 209.07889648 -93.19824219 208.39624023 C-109.78193767 194.30789705 -121.16923685 174.96380913 -127.75292969 154.40405273 C-127.97883789 153.69925781 -128.20474609 152.99446289 -128.4375 152.26831055 C-137.28924994 122.93924048 -132.58081165 89.05167811 -118.60351562 62.19555664 C-102.94236025 33.89706362 -76.79729428 12.97822958 -45.73121881 3.96061146 C-30.60732461 -0.29424452 -15.59940469 -0.02895141 0 0 Z " fill="#0E1D2C" transform="translate(131.7529296875,-0.404052734375)"/>
<path d="M0 0 C4.39040062 3.27876778 8.20330168 7.06333124 12 11 C12.66386719 11.63292969 13.32773437 12.26585938 14.01171875 12.91796875 C22.41137174 21.46862674 27.7409271 34.38724507 30 46 C30.18175781 46.92554688 30.36351562 47.85109375 30.55078125 48.8046875 C33.45397111 69.45520318 28.16193277 89.14086981 16 106 C3.88272888 121.84764121 -13.6364897 130.31748233 -32.9375 133.6875 C-54.66232107 135.78414598 -74.98255175 130.81758618 -92 117 C-93.03125 116.2575 -94.0625 115.515 -95.125 114.75 C-106.52308062 103.8474881 -114.16805445 89.47375046 -117 74 C-117.13019531 73.29488281 -117.26039063 72.58976562 -117.39453125 71.86328125 C-120.30288305 52.74571542 -115.73221735 33.34000113 -104.56860352 17.65234375 C-80.41385825 -14.96764252 -33.83593581 -21.87561418 0 0 Z M-82.0234375 30.3203125 C-90.68864707 42.06800769 -92.27728726 55.86043005 -91 70 C-88.58680798 82.23049593 -81.79395931 93.30169137 -72 101 C-59.42359609 108.70764403 -46.68556722 112.06377208 -32.0625 108.875 C-18.3768252 105.12815073 -8.05672586 97.23982972 -1 85 C4.53403614 72.37704747 6.5821084 57.82692799 2.375 44.4375 C-3.34374883 30.10063667 -12.25390432 20.54851222 -26.19140625 13.96484375 C-46.82583802 6.24936057 -68.23581918 14.29159721 -82.0234375 30.3203125 Z " fill="#0E1D2C" transform="translate(746,59)"/>
<path d="M0 0 C12.478125 -0.061875 24.95625 -0.12375 37.8125 -0.1875 C41.73229736 -0.21481201 45.65209473 -0.24212402 49.69067383 -0.27026367 C54.52868652 -0.28381348 54.52868652 -0.28381348 56.80351257 -0.28633118 C58.37055528 -0.29089614 59.93758837 -0.30135926 61.50456238 -0.31672668 C76.69583466 -0.45808097 91.68456952 1.33149722 103.33984375 12.16015625 C111.78673542 21.52129972 115.77267264 32.85556883 115.28125 45.46875 C113.96898979 57.27909187 109.61991834 66.12539403 101.078125 74.359375 C97.08187892 77.51430611 92.55081844 79.75339343 88 82 C93.25505104 92.66567925 98.6766827 103.24465935 104.125 113.8125 C104.46789062 114.47863312 104.81078125 115.14476624 105.1640625 115.83108521 C106.17302323 117.79048959 107.18359832 119.74904725 108.1953125 121.70703125 C108.51808167 122.33190933 108.84085083 122.95678741 109.17340088 123.6006012 C111.67882226 128.42956803 114.29009449 133.19454054 116.96435547 137.93237305 C118 140 118 140 118 142 C108.43 142 98.86 142 89 142 C87.54980469 139.08220703 87.54980469 139.08220703 86.0703125 136.10546875 C79.2026016 122.30657689 72.30832145 108.53278763 65.02050781 94.94921875 C63.64323992 92.31857117 62.32794379 89.65588758 61 87 C43.675 86.505 43.675 86.505 26 86 C26 104.48 26 122.96 26 142 C17.42 142 8.84 142 0 142 C0 95.14 0 48.28 0 0 Z M26 22 C26 35.86 26 49.72 26 64 C32.22634125 64.09224209 38.45027562 64.17175675 44.67675781 64.21972656 C46.79109772 64.23974016 48.90538299 64.26695972 51.01953125 64.30175781 C54.07305448 64.35072941 57.12584078 64.37307182 60.1796875 64.390625 C61.11239471 64.41127014 62.04510193 64.43191528 63.006073 64.45318604 C70.22911645 64.45561028 77.35886384 63.19602916 82.94747925 58.29058838 C87.05425921 53.88471814 88.75620992 49.63293282 89.3125 43.625 C88.65682533 36.01917386 86.27277443 31.65986674 80.62109375 26.54296875 C73.51282343 22.35851752 65.92868068 21.56187848 57.8359375 21.70703125 C56.6125769 21.71156311 56.6125769 21.71156311 55.36450195 21.71618652 C52.36786937 21.73167913 49.37141962 21.7735601 46.375 21.8125 C39.65125 21.874375 32.9275 21.93625 26 22 Z " fill="#0E1D2C" transform="translate(809,49)"/>
<path d="M0 0 C6.90027151 6.99273518 6.49724189 16.36714212 6.45068359 25.6171875 C6.45594055 26.91102356 6.46119751 28.20485962 6.46661377 29.53790283 C6.48020479 33.06274226 6.47502307 36.5873161 6.46547651 40.11215973 C6.457837 43.81550264 6.46493737 47.51882408 6.46963501 51.22216797 C6.47508014 57.43916878 6.46793371 63.65606238 6.45361328 69.87304688 C6.4372891 77.0423409 6.4425785 84.2113789 6.4590925 91.38066673 C6.47274292 97.55590684 6.47460971 103.73107024 6.46677649 109.90632057 C6.46211945 113.58584408 6.46142049 117.26524757 6.47138596 120.94476318 C6.48172762 125.04926511 6.46736042 129.15333142 6.45068359 133.2578125 C6.45979263 135.06756561 6.45979263 135.06756561 6.46908569 136.91387939 C6.41534107 144.0730467 6.31164479 151.58797798 1.48052025 157.3117981 C-2.3845049 161.07494881 -6.54017005 163.11706483 -11.9375 163.4375 C-17.69060599 163.11953905 -22.26797415 161.40202775 -26.38652611 157.3117981 C-31.9357571 150.60574512 -31.36705621 141.4775836 -31.32568359 133.2578125 C-31.33356903 131.31705841 -31.33356903 131.31705841 -31.34161377 129.33709717 C-31.35520479 125.81225774 -31.35002307 122.2876839 -31.34047651 118.76284027 C-31.332837 115.05949736 -31.33993737 111.35617592 -31.34463501 107.65283203 C-31.35008014 101.43583122 -31.34293371 95.21893762 -31.32861328 89.00195312 C-31.3122891 81.8326591 -31.3175785 74.6636211 -31.3340925 67.49433327 C-31.34774292 61.31909316 -31.34960971 55.14392976 -31.34177649 48.96867943 C-31.33711945 45.28915592 -31.33642049 41.60975243 -31.34638596 37.93023682 C-31.35672762 33.82573489 -31.34236042 29.72166858 -31.32568359 25.6171875 C-31.33175629 24.41068542 -31.33782898 23.20418335 -31.34408569 21.96112061 C-31.29040978 14.81110504 -31.21225853 7.24278731 -26.32451439 1.5632019 C-18.73100793 -5.68791564 -8.43057644 -6.39868275 0 0 Z " fill="#FCFDFD" transform="translate(259.9375,39.5625)"/>
<path d="M0 0 C8.58 0 17.16 0 26 0 C26 46.86 26 93.72 26 142 C17.42 142 8.84 142 0 142 C0 95.14 0 48.28 0 0 Z " fill="#0E1D2C" transform="translate(955,49)"/>
<path d="M0 0 C4.71254071 2.65327923 7.1757993 7.01712106 8.859375 12.046875 C9.12007141 14.6443634 9.12007141 14.6443634 9.1340332 17.44458008 C9.14833122 19.0269622 9.14833122 19.0269622 9.16291809 20.64131165 C9.16200668 21.77159286 9.16109528 22.90187408 9.16015625 24.06640625 C9.16444138 25.23894455 9.1687265 26.41148285 9.17314148 27.61955261 C9.17887966 30.09833125 9.17938883 32.57712672 9.17504883 35.0559082 C9.17189526 38.83509314 9.19533351 42.61349028 9.22070312 46.39257812 C9.22297689 48.80468652 9.22367925 51.216797 9.22265625 53.62890625 C9.231866 54.75311478 9.24107574 55.8773233 9.25056458 57.03559875 C9.21186518 63.64856491 9.10821236 70.28465513 4.54902649 75.56428528 C0.27757728 79.42466527 -3.90239999 80.79818333 -9.515625 81.421875 C-15.26403982 80.8272114 -19.4337157 78.7537843 -23.515625 74.671875 C-27.6392883 68.01057275 -27.46150898 61.539614 -27.4765625 53.9296875 C-27.4865477 52.17300247 -27.4865477 52.17300247 -27.49673462 50.38082886 C-27.50684177 47.90803595 -27.51155224 45.43521588 -27.51123047 42.96240234 C-27.51560176 39.19192291 -27.5519392 35.42261616 -27.58984375 31.65234375 C-27.59571274 29.24479565 -27.59968158 26.83724202 -27.6015625 24.4296875 C-27.61593353 23.30861603 -27.63030457 22.18754456 -27.64511108 21.03250122 C-27.60566188 14.22935323 -26.78434885 9.83712001 -23.140625 4.046875 C-16.35307289 -2.56663731 -8.67248397 -3.56311357 0 0 Z " fill="#FCFDFD" transform="translate(328.140625,81.953125)"/>
<path d="M0 0 C4.71254071 2.65327923 7.1757993 7.01712106 8.859375 12.046875 C9.12007141 14.6443634 9.12007141 14.6443634 9.1340332 17.44458008 C9.14833122 19.0269622 9.14833122 19.0269622 9.16291809 20.64131165 C9.16200668 21.77159286 9.16109528 22.90187408 9.16015625 24.06640625 C9.16444138 25.23894455 9.1687265 26.41148285 9.17314148 27.61955261 C9.17887966 30.09833125 9.17938883 32.57712672 9.17504883 35.0559082 C9.17189526 38.83509314 9.19533351 42.61349028 9.22070312 46.39257812 C9.22297689 48.80468652 9.22367925 51.216797 9.22265625 53.62890625 C9.231866 54.75311478 9.24107574 55.8773233 9.25056458 57.03559875 C9.21186518 63.64856491 9.10821236 70.28465513 4.54902649 75.56428528 C0.27757728 79.42466527 -3.90239999 80.79818333 -9.515625 81.421875 C-15.26403982 80.8272114 -19.4337157 78.7537843 -23.515625 74.671875 C-27.6392883 68.01057275 -27.46150898 61.539614 -27.4765625 53.9296875 C-27.4865477 52.17300247 -27.4865477 52.17300247 -27.49673462 50.38082886 C-27.50684177 47.90803595 -27.51155224 45.43521588 -27.51123047 42.96240234 C-27.51560176 39.19192291 -27.5519392 35.42261616 -27.58984375 31.65234375 C-27.59571274 29.24479565 -27.59968158 26.83724202 -27.6015625 24.4296875 C-27.61593353 23.30861603 -27.63030457 22.18754456 -27.64511108 21.03250122 C-27.60566188 14.22935323 -26.78434885 9.83712001 -23.140625 4.046875 C-16.35307289 -2.56663731 -8.67248397 -3.56311357 0 0 Z " fill="#FCFDFD" transform="translate(185.140625,81.953125)"/>
</svg>
