<?xml version="1.0" encoding="UTF-8"?>
<svg version="1.1" xmlns="http://www.w3.org/2000/svg" width="981" height="238">
<path d="M0 0 C2.78761672 -0.0040726 5.57521633 -0.01257872 8.36282349 -0.02079773 C15.11583349 -0.0378923 21.86875007 -0.03884519 28.62177607 -0.03358483 C34.11799017 -0.0295238 39.6141769 -0.03100948 45.11038971 -0.03633308 C45.89620073 -0.03708151 46.68201175 -0.03782993 47.49163522 -0.03860103 C49.08863805 -0.0401327 50.68564088 -0.04167105 52.28264371 -0.043216 C67.22058101 -0.05690764 82.15846577 -0.05152725 97.09640184 -0.04003078 C110.71982994 -0.03010533 124.34312208 -0.04303312 137.96652922 -0.06696498 C152.00190043 -0.09143208 166.03720852 -0.10094502 180.0726006 -0.09431225 C187.93360044 -0.09083643 195.79449589 -0.09294271 203.65547943 -0.11056328 C210.34831803 -0.12538107 217.04097874 -0.1257973 223.73381421 -0.10849237 C227.13903473 -0.10005703 230.54368208 -0.09986737 233.94892502 -0.11314392 C267.06327158 -0.2323042 295.7372126 6.32986609 321.24707031 28.40405273 C322.05402344 29.06663086 322.86097656 29.72920898 323.69238281 30.41186523 C340.27607829 44.50020842 351.66337748 63.84429634 358.24707031 84.40405273 C358.47297852 85.10884766 358.69888672 85.81364258 358.93164062 86.53979492 C367.78339056 115.86886498 363.07495228 149.75642736 349.09765625 176.61254883 C333.43650087 204.91104185 307.2914349 225.82987589 276.22535944 234.84749401 C261.10146524 239.10234999 246.09354532 238.83705688 230.49414062 238.80810547 C227.70652391 238.81217806 224.91892429 238.82068419 222.13131714 238.8289032 C215.37830713 238.84599777 208.62539055 238.84695065 201.87236455 238.84169029 C196.37615046 238.83762926 190.87996373 238.83911494 185.38375092 238.84443855 C184.5979399 238.84518697 183.81212888 238.8459354 183.00250541 238.8467065 C181.40550257 238.84823817 179.80849974 238.84977652 178.21149692 238.85132147 C163.27355962 238.8650131 148.33567486 238.85963271 133.39773878 238.84813625 C119.77431069 238.8382108 106.15101854 238.85113859 92.5276114 238.87507045 C78.4922402 238.89953755 64.4569321 238.90905049 50.42154002 238.90241772 C42.56054019 238.8989419 34.69964474 238.90104818 26.83866119 238.91866875 C20.14582259 238.93348654 13.45316188 238.93390276 6.76032642 238.91659784 C3.35510589 238.9081625 -0.04954146 238.90797284 -3.45478439 238.92124939 C-36.56913095 239.04040967 -65.24307197 232.47823938 -90.75292969 210.40405273 C-91.55988281 209.74147461 -92.36683594 209.07889648 -93.19824219 208.39624023 C-109.78193767 194.30789705 -121.16923685 174.96380913 -127.75292969 154.40405273 C-127.97883789 153.69925781 -128.20474609 152.99446289 -128.4375 152.26831055 C-137.28924994 122.93924048 -132.58081165 89.05167811 -118.60351562 62.19555664 C-102.94236025 33.89706362 -76.79729428 12.97822958 -45.73121881 3.96061146 C-30.60732461 -0.29424452 -15.59940469 -0.02895141 0 0 Z " fill="#FE4E37" transform="translate(131.7529296875,-0.404052734375)"/>
<path d="M0 0 C4.39040062 3.27876778 8.20330168 7.06333124 12 11 C12.66386719 11.63292969 13.32773437 12.26585938 14.01171875 12.91796875 C22.41137174 21.46862674 27.7409271 34.38724507 30 46 C30.18175781 46.92554688 30.36351562 47.85109375 30.55078125 48.8046875 C33.45397111 69.45520318 28.16193277 89.14086981 16 106 C3.88272888 121.84764121 -13.6364897 130.31748233 -32.9375 133.6875 C-54.66232107 135.78414598 -74.98255175 130.81758618 -92 117 C-93.03125 116.2575 -94.0625 115.515 -95.125 114.75 C-106.52308062 103.8474881 -114.16805445 89.47375046 -117 74 C-117.13019531 73.29488281 -117.26039063 72.58976562 -117.39453125 71.86328125 C-120.30288305 52.74571542 -115.73221735 33.34000113 -104.56860352 17.65234375 C-80.41385825 -14.96764252 -33.83593581 -21.87561418 0 0 Z M-82.0234375 30.3203125 C-90.68864707 42.06800769 -92.27728726 55.86043005 -91 70 C-88.58680798 82.23049593 -81.79395931 93.30169137 -72 101 C-59.42359609 108.70764403 -46.68556722 112.06377208 -32.0625 108.875 C-18.3768252 105.12815073 -8.05672586 97.23982972 -1 85 C4.53403614 72.37704747 6.5821084 57.82692799 2.375 44.4375 C-3.34374883 30.10063667 -12.25390432 20.54851222 -26.19140625 13.96484375 C-46.82583802 6.24936057 -68.23581918 14.29159721 -82.0234375 30.3203125 Z " fill="#FF4F38" transform="translate(746,59)"/>
<path d="M0 0 C12.478125 -0.061875 24.95625 -0.12375 37.8125 -0.1875 C41.73229736 -0.21481201 45.65209473 -0.24212402 49.69067383 -0.27026367 C54.52868652 -0.28381348 54.52868652 -0.28381348 56.80351257 -0.28633118 C58.37055528 -0.29089614 59.93758837 -0.30135926 61.50456238 -0.31672668 C76.69583466 -0.45808097 91.68456952 1.33149722 103.33984375 12.16015625 C111.78673542 21.52129972 115.77267264 32.85556883 115.28125 45.46875 C113.96898979 57.27909187 109.61991834 66.12539403 101.078125 74.359375 C97.08187892 77.51430611 92.55081844 79.75339343 88 82 C93.25505104 92.66567925 98.6766827 103.24465935 104.125 113.8125 C104.46789062 114.47863312 104.81078125 115.14476624 105.1640625 115.83108521 C106.17302323 117.79048959 107.18359832 119.74904725 108.1953125 121.70703125 C108.51808167 122.33190933 108.84085083 122.95678741 109.17340088 123.6006012 C111.67882226 128.42956803 114.29009449 133.19454054 116.96435547 137.93237305 C118 140 118 140 118 142 C108.43 142 98.86 142 89 142 C87.54980469 139.08220703 87.54980469 139.08220703 86.0703125 136.10546875 C79.2026016 122.30657689 72.30832145 108.53278763 65.02050781 94.94921875 C63.64323992 92.31857117 62.32794379 89.65588758 61 87 C43.675 86.505 43.675 86.505 26 86 C26 104.48 26 122.96 26 142 C17.42 142 8.84 142 0 142 C0 95.14 0 48.28 0 0 Z M26 22 C26 35.86 26 49.72 26 64 C32.22634125 64.09224209 38.45027562 64.17175675 44.67675781 64.21972656 C46.79109772 64.23974016 48.90538299 64.26695972 51.01953125 64.30175781 C54.07305448 64.35072941 57.12584078 64.37307182 60.1796875 64.390625 C61.11239471 64.41127014 62.04510193 64.43191528 63.006073 64.45318604 C70.22911645 64.45561028 77.35886384 63.19602916 82.94747925 58.29058838 C87.05425921 53.88471814 88.75620992 49.63293282 89.3125 43.625 C88.65682533 36.01917386 86.27277443 31.65986674 80.62109375 26.54296875 C73.51282343 22.35851752 65.92868068 21.56187848 57.8359375 21.70703125 C56.6125769 21.71156311 56.6125769 21.71156311 55.36450195 21.71618652 C52.36786937 21.73167913 49.37141962 21.7735601 46.375 21.8125 C39.65125 21.874375 32.9275 21.93625 26 22 Z " fill="#FF4F38" transform="translate(809,49)"/>
<path d="M0 0 C5.20113431 2.9006326 8.54995323 6.53437443 11.25 11.8125 C11.63031673 14.6074419 11.63031673 14.6074419 11.63768005 17.71284485 C11.64758469 18.89455261 11.65748932 20.07626038 11.66769409 21.29377747 C11.66094162 23.22564156 11.66094162 23.22564156 11.65405273 25.1965332 C11.6597582 26.5734411 11.66672315 27.95034426 11.67485046 29.32723999 C11.69278131 33.06090137 11.69161326 36.7943277 11.68590808 40.52801919 C11.68281497 43.64910544 11.68891029 46.77014663 11.69494683 49.89122647 C11.70899126 57.2581703 11.70743252 64.62499818 11.69604492 71.99194336 C11.68457372 79.58043138 11.69862256 87.16856557 11.7254414 94.75700694 C11.74763184 101.28119556 11.75422797 107.80527338 11.74836498 114.32949704 C11.74500096 118.22203776 11.74737286 122.1143519 11.76461601 126.00686073 C11.78013578 129.6702551 11.77607462 133.3331278 11.75731087 136.99650192 C11.75189462 138.97255526 11.76610228 140.94863229 11.78100586 142.92463684 C11.71669146 150.70822657 11.15856185 156.85350509 5.43359375 162.65234375 C4.85738281 163.01457031 4.28117187 163.37679687 3.6875 163.75 C2.81931641 164.32041016 2.81931641 164.32041016 1.93359375 164.90234375 C-2.74494413 167.43157652 -7.58223624 167.58169027 -12.75 166.8125 C-18.60865278 164.34713524 -22.10094955 161.13728652 -24.8936882 155.3617382 C-26.65986698 150.10382816 -26.32064682 144.59497615 -26.29931641 139.10375977 C-26.30802402 137.72802633 -26.31839477 136.35230257 -26.33029175 134.97659302 C-26.35695004 131.25952843 -26.35824311 127.54287204 -26.35316515 123.82573056 C-26.35101762 120.71451359 -26.36081293 117.60337785 -26.37037599 114.49217838 C-26.39252369 107.14861308 -26.39346496 99.80525242 -26.38134766 92.46166992 C-26.36926683 84.90308818 -26.39390162 77.34525091 -26.43648779 69.78679615 C-26.47178941 63.28034289 -26.4837118 56.77412588 -26.47721231 50.26758045 C-26.47359759 46.38890527 -26.47874714 42.51076138 -26.50664139 38.63217354 C-26.53190469 34.98330014 -26.52781387 31.3355825 -26.50181961 27.68672562 C-26.49487955 25.72160541 -26.51736677 23.75644902 -26.54095459 21.79145813 C-26.44795411 13.92106754 -25.19339076 8.67075112 -19.75 2.8125 C-13.80575724 -2.41878606 -7.16750139 -2.26970877 0 0 Z " fill="#0E1D2C" transform="translate(254.75,36.1875)"/>
<path d="M0 0 C8.58 0 17.16 0 26 0 C26 46.86 26 93.72 26 142 C17.42 142 8.84 142 0 142 C0 95.14 0 48.28 0 0 Z " fill="#FF4F38" transform="translate(955,49)"/>
<path d="M0 0 C4.00521387 2.88747977 7.46370991 6.48991981 9.6875 10.9375 C9.79369949 12.75387587 9.83630616 14.5741186 9.84863281 16.39355469 C9.85824036 17.53524109 9.8678479 18.67692749 9.87774658 19.85321045 C9.88199646 21.09274475 9.88624634 22.33227905 9.890625 23.609375 C9.89632507 24.87968567 9.90202515 26.14999634 9.90789795 27.45880127 C9.91735998 30.15225814 9.9242503 32.84560326 9.92773438 35.5390625 C9.93320626 38.98006701 9.95720519 42.42067323 9.98570633 45.86155319 C10.00888894 49.15246344 10.01078678 52.44339454 10.015625 55.734375 C10.0279718 56.96581238 10.0403186 58.19724976 10.05303955 59.46600342 C10.03506995 66.37754679 9.86310444 71.4948561 4.96875 76.80078125 C4.3809375 77.27902344 3.793125 77.75726563 3.1875 78.25 C2.30578125 78.98669922 2.30578125 78.98669922 1.40625 79.73828125 C-3.19006113 82.94525288 -8.96003051 82.48273003 -14.3125 81.9375 C-19.20436906 79.58215564 -22.12328942 76.2201542 -25.3125 71.9375 C-26.3480798 68.83076059 -26.45759512 66.62726363 -26.48950195 63.36791992 C-26.50233719 62.22630905 -26.51517242 61.08469818 -26.52839661 59.90849304 C-26.53578354 58.67412003 -26.54317047 57.43974701 -26.55078125 56.16796875 C-26.558853 54.89907303 -26.56692474 53.63017731 -26.57524109 52.3228302 C-26.58908158 49.63534901 -26.60009815 46.94799047 -26.60766602 44.26049805 C-26.61872236 40.8272506 -26.65311869 37.39465274 -26.69283772 33.96163464 C-26.72535373 30.67631074 -26.72978678 27.39092902 -26.73828125 24.10546875 C-26.75578934 22.87716843 -26.77329742 21.6488681 -26.79133606 20.38334656 C-26.77169656 12.65616828 -26.16817937 8.82085171 -20.6796875 3.29296875 C-14.18577076 -1.78996608 -7.98812494 -2.56222875 0 0 Z " fill="#0F1D2C" transform="translate(327.3125,81.0625)"/>
<path d="M0 0 C4.00521387 2.88747977 7.46370991 6.48991981 9.6875 10.9375 C9.79369949 12.75387587 9.83630616 14.5741186 9.84863281 16.39355469 C9.85824036 17.53524109 9.8678479 18.67692749 9.87774658 19.85321045 C9.88199646 21.09274475 9.88624634 22.33227905 9.890625 23.609375 C9.89632507 24.87968567 9.90202515 26.14999634 9.90789795 27.45880127 C9.91735998 30.15225814 9.9242503 32.84560326 9.92773438 35.5390625 C9.93320626 38.98006701 9.95720519 42.42067323 9.98570633 45.86155319 C10.00888894 49.15246344 10.01078678 52.44339454 10.015625 55.734375 C10.0279718 56.96581238 10.0403186 58.19724976 10.05303955 59.46600342 C10.03506995 66.37754679 9.86310444 71.4948561 4.96875 76.80078125 C4.3809375 77.27902344 3.793125 77.75726563 3.1875 78.25 C2.30578125 78.98669922 2.30578125 78.98669922 1.40625 79.73828125 C-3.19006113 82.94525288 -8.96003051 82.48273003 -14.3125 81.9375 C-19.20436906 79.58215564 -22.12328942 76.2201542 -25.3125 71.9375 C-26.3480798 68.83076059 -26.45759512 66.62726363 -26.48950195 63.36791992 C-26.50233719 62.22630905 -26.51517242 61.08469818 -26.52839661 59.90849304 C-26.53578354 58.67412003 -26.54317047 57.43974701 -26.55078125 56.16796875 C-26.558853 54.89907303 -26.56692474 53.63017731 -26.57524109 52.3228302 C-26.58908158 49.63534901 -26.60009815 46.94799047 -26.60766602 44.26049805 C-26.61872236 40.8272506 -26.65311869 37.39465274 -26.69283772 33.96163464 C-26.72535373 30.67631074 -26.72978678 27.39092902 -26.73828125 24.10546875 C-26.75578934 22.87716843 -26.77329742 21.6488681 -26.79133606 20.38334656 C-26.77169656 12.65616828 -26.16817937 8.82085171 -20.6796875 3.29296875 C-14.18577076 -1.78996608 -7.98812494 -2.56222875 0 0 Z " fill="#0F1D2C" transform="translate(184.3125,81.0625)"/>
</svg>
